<?xml version="1.0" encoding="UTF-8" standalone="no"?>
<svg
   width="24"
   height="24"
   viewBox="0 0 24 24"
   version="1.1"
   id="svg87"
   sodipodi:docname="instagram.svg"
   inkscape:version="1.1.2 (0a00cf5339, 2022-02-04)"
   xmlns:inkscape="http://www.inkscape.org/namespaces/inkscape"
   xmlns:sodipodi="http://sodipodi.sourceforge.net/DTD/sodipodi-0.dtd"
   xmlns="http://www.w3.org/2000/svg"
   xmlns:svg="http://www.w3.org/2000/svg">
  <defs
     id="defs91" />
  <sodipodi:namedview
     id="namedview89"
     pagecolor="#ffffff"
     bordercolor="#666666"
     borderopacity="1.0"
     inkscape:pageshadow="2"
     inkscape:pageopacity="0.0"
     inkscape:pagecheckerboard="0"
     showgrid="false"
     inkscape:zoom="22.416667"
     inkscape:cx="27.270794"
     inkscape:cy="12.280587"
     inkscape:window-width="1920"
     inkscape:window-height="1008"
     inkscape:window-x="0"
     inkscape:window-y="0"
     inkscape:window-maximized="1"
     inkscape:current-layer="svg87" />
  <path
     d="M12 2c5.514 0 10 4.486 10 10s-4.486 10-10 10-10-4.486-10-10 4.486-10 10-10zm0-2c-6.627 0-12 5.373-12 12s5.373 12 12 12 12-5.373 12-12-5.373-12-12-12zm0 7.082c1.602 0 1.792.006 2.425.035 1.627.074 2.385.845 2.46 2.459.028.633.034.822.034 2.424s-.006 1.792-.034 2.424c-.075 1.613-.832 2.386-2.46 2.46-.633.028-.822.035-2.425.035-1.602 0-1.792-.006-2.424-.035-1.63-.075-2.385-.849-2.46-2.46-.028-.632-.035-.822-.035-2.424s.007-1.792.035-2.424c.074-1.615.832-2.386 2.46-2.46.632-.029.822-.034 2.424-.034zm0-1.082c-1.63 0-1.833.007-2.474.037-2.18.1-3.39 1.309-3.49 3.489-.029.641-.036.845-.036 2.474 0 1.63.007 1.834.036 2.474.1 2.179 1.31 3.39 3.49 3.49.641.029.844.036 2.474.036 1.63 0 1.834-.007 2.475-.036 2.176-.1 3.391-1.309 3.489-3.49.029-.64.036-.844.036-2.474 0-1.629-.007-1.833-.036-2.474-.098-2.177-1.309-3.39-3.489-3.489-.641-.03-.845-.037-2.475-.037zm0 2.919c-1.701 0-3.081 1.379-3.081 3.081s1.38 3.081 3.081 3.081 3.081-1.379 3.081-3.081c0-1.701-1.38-3.081-3.081-3.081zm0 5.081c-1.105 0-2-.895-2-2 0-1.104.895-2 2-2 1.104 0 2.001.895 2.001 2s-.897 2-2.001 2zm3.202-5.922c-.397 0-.72.322-.72.72 0 .397.322.72.72.72.398 0 .721-.322.721-.72 0-.398-.322-.72-.721-.72z"
     id="path85" />
  <path
     style="fill:#ffffff;stroke-width:0.0446097"
     d="M 10.907063,23.927371 C 9.9149384,23.832808 8.7791496,23.576416 7.8673628,23.241191 6.7592636,22.83379 5.3708779,22.039107 4.4386617,21.278673 3.9727721,20.898635 3.1059793,20.033935 2.7411813,19.585291 1.2845389,17.793852 0.39537546,15.717437 0.11249718,13.446666 c -0.09077146,-0.728656 -0.09077146,-2.164676 0,-2.893332 C 0.40079657,8.2390461 1.3203947,6.1235054 2.8286397,4.3048327 3.1537626,3.9127929 4.0437168,3.0423382 4.4832714,2.6864552 5.6941196,1.7060983 7.2007749,0.92110983 8.6970446,0.49101988 15.177404,-1.3717038 21.929023,2.5085714 23.599564,9.0557621 c 0.299568,1.1740679 0.407991,2.2793359 0.350085,3.5687729 -0.151707,3.378149 -1.81675,6.604824 -4.522807,8.76472 -0.864572,0.690076 -2.245324,1.466307 -3.294205,1.851936 -1.618305,0.594982 -3.537853,0.847041 -5.225574,0.68618 z m 2.080776,-1.958723 c 3.824562,-0.382659 7.095164,-2.917073 8.42406,-6.52787 0.408619,-1.110275 0.593428,-2.192645 0.591305,-3.463083 C 22.001002,10.659993 21.792831,9.5250343 21.34272,8.3766995 20.081253,5.1584052 17.287236,2.821698 13.918216,2.167397 10.648252,1.532334 7.2818512,2.558103 4.9281752,4.9067335 3.3800756,6.4515145 2.3902466,8.4309199 2.0726272,10.6171 c -0.1132788,0.779701 -0.1041878,2.08495 0.02004,2.877324 0.6730296,4.292833 3.9488569,7.637389 8.2121658,8.384461 0.754382,0.132193 1.881904,0.169915 2.683006,0.08976 z"
     id="path1039" />
  <path
     style="fill:#ffffff;stroke-width:0.0446097"
     d="M 10.394052,17.951202 C 9.0576179,17.924112 8.7805188,17.89299 8.2281791,17.707949 7.8504816,17.581415 7.4237451,17.333874 7.1388323,17.076043 6.6276004,16.613405 6.3296919,16.056034 6.1456998,15.217948 6.049017,14.777556 6.046436,14.693884 6.046436,12 6.046436,9.3061156 6.049016,9.2224442 6.1457,8.7820525 6.3989571,7.6284609 6.9281423,6.9011184 7.8289963,6.4684327 8.6464629,6.0757985 8.9742857,6.0423068 12,6.0423068 c 3.025714,0 3.353537,0.033492 4.171004,0.4261259 0.901003,0.4327574 1.430635,1.1608319 1.683025,2.3136198 0.09614,0.4391317 0.09903,0.5304863 0.100177,3.1733375 0.001,2.411552 -0.0077,2.768329 -0.07716,3.135466 -0.165749,0.876443 -0.404934,1.361877 -0.931708,1.890936 -0.528113,0.530404 -1.207307,0.824517 -2.142463,0.927759 -0.487419,0.05381 -2.753017,0.07521 -4.408822,0.04165 z m 4.750929,-1.131361 c 0.900716,-0.22609 1.40961,-0.710746 1.638441,-1.560404 0.13269,-0.492684 0.181157,-1.75322 0.152768,-3.973192 C 16.91425,9.5708159 16.9001,9.2717433 16.823879,8.9134188 16.614008,7.9267554 16.073204,7.3880423 15.078067,7.1743581 c -0.343634,-0.073788 -0.634295,-0.081421 -3.100372,-0.081421 -2.4882237,0 -2.7517423,0.00706 -3.0780667,0.082448 -0.7614259,0.1759091 -1.2220982,0.5138679 -1.513374,1.1102427 -0.2629554,0.53839 -0.2970886,0.8590321 -0.3241721,3.0452272 -0.025463,2.055352 0.024763,3.433461 0.1414448,3.881041 0.2310167,0.886155 0.7818717,1.413086 1.6737964,1.601104 0.4946314,0.104269 0.5188153,0.104953 3.3457246,0.09469 2.320836,-0.0084 2.644227,-0.01815 2.921933,-0.08785 z"
     id="path1078" />
  <path
     style="fill:#ffffff;stroke-width:0.0446097"
     d="M 11.307123,14.972015 C 9.9111054,14.628546 8.9568328,13.421839 8.9568328,12 c 0,-1.203131 0.6777668,-2.2617907 1.7717922,-2.7675073 1.502688,-0.6946226 3.285864,-0.056931 4.013503,1.4352903 0.747086,1.532104 0.08375,3.38115 -1.470753,4.099724 -0.616429,0.284947 -1.333757,0.359631 -1.964252,0.204508 z m 1.391353,-1.081758 c 0.812508,-0.301486 1.308959,-1.01997 1.308959,-1.894379 0,-0.5857 -0.219757,-1.09221 -0.640843,-1.477059 -0.781968,-0.7146741 -1.951216,-0.7146741 -2.733184,0 C 10.211105,10.904781 9.9925651,11.409891 9.9925651,12 c 0,0.957533 0.6277239,1.749555 1.5613379,1.969996 0.322639,0.07618 0.817228,0.04172 1.144573,-0.07974 z"
     id="path1117" />
  <path
     style="fill:#ffffff;stroke-width:0.0446097"
     d="m 14.854565,9.3791822 c -0.330404,-0.2248713 -0.424021,-0.514616 -0.27507,-0.8513451 0.204544,-0.4624042 0.715964,-0.5615174 1.091224,-0.2114788 0.165995,0.1548385 0.182853,0.1915592 0.198328,0.4320083 0.01337,0.2077735 -0.0022,0.293222 -0.07436,0.408175 -0.200795,0.3198524 -0.643311,0.4246494 -0.940124,0.2226406 z"
     id="path1156" />
</svg>
