<?xml version="1.0" encoding="UTF-8" standalone="no"?>
<svg
   width="24"
   height="24"
   viewBox="0 0 24 24"
   version="1.1"
   id="svg175"
   sodipodi:docname="linkedin.svg"
   inkscape:version="1.1.2 (0a00cf5339, 2022-02-04)"
   xmlns:inkscape="http://www.inkscape.org/namespaces/inkscape"
   xmlns:sodipodi="http://sodipodi.sourceforge.net/DTD/sodipodi-0.dtd"
   xmlns="http://www.w3.org/2000/svg"
   xmlns:svg="http://www.w3.org/2000/svg">
  <defs
     id="defs179" />
  <sodipodi:namedview
     id="namedview177"
     pagecolor="#ffffff"
     bordercolor="#666666"
     borderopacity="1.0"
     inkscape:pageshadow="2"
     inkscape:pageopacity="0.0"
     inkscape:pagecheckerboard="0"
     showgrid="false"
     inkscape:zoom="34.583333"
     inkscape:cx="12"
     inkscape:cy="12"
     inkscape:window-width="1920"
     inkscape:window-height="1008"
     inkscape:window-x="0"
     inkscape:window-y="0"
     inkscape:window-maximized="1"
     inkscape:current-layer="svg175" />
  <path
     d="M12 2c5.514 0 10 4.486 10 10s-4.486 10-10 10-10-4.486-10-10 4.486-10 10-10zm0-2c-6.627 0-12 5.373-12 12s5.373 12 12 12 12-5.373 12-12-5.373-12-12-12zm-2 8c0 .557-.447 1.008-1 1.008s-1-.45-1-1.008c0-.557.447-1.008 1-1.008s1 .452 1 1.008zm0 2h-2v6h2v-6zm3 0h-2v6h2v-2.861c0-1.722 2.002-1.881 2.002 0v2.861h1.998v-3.359c0-3.284-3.128-3.164-4-1.548v-1.093z"
     id="path173" />
  <path
     style="fill:#ffffff;stroke-width:0.0289157"
     d="m 11.306024,23.968816 c -0.05566,-0.0063 -0.263855,-0.02587 -0.462651,-0.04355 C 9.0432254,23.765165 7.2246014,23.145057 5.6384585,22.150514 2.301894,20.058421 0.18046459,16.418321 0.03455678,12.53494 -0.06275388,9.9449864 0.57701069,7.5937848 1.9565309,5.4714836 3.7888624,2.6525619 6.7519073,0.71361042 10.048193,0.17647747 10.771699,0.05858151 11.16005,0.02925386 12,0.02908013 c 1.08438,-2.2428e-4 1.875845,0.09252336 2.862651,0.33545914 3.770707,0.92828823 6.88018,3.65272563 8.296526,7.26919563 0.613366,1.5661559 0.872078,3.1384801 0.806448,4.9012051 -0.146031,3.922229 -2.317059,7.604983 -5.705824,9.678892 -1.530514,0.936668 -3.14073,1.489073 -4.958596,1.70111 -0.364507,0.04252 -1.761248,0.08023 -1.995181,0.05387 z m 1.836145,-2.021312 c 4.726255,-0.549651 8.409455,-4.329946 8.832731,-9.065576 0.03831,-0.428635 0.03813,-1.338319 -3.47e-4,-1.763856 C 21.746749,8.5989056 20.558083,6.213177 18.71372,4.5733744 17.291594,3.3089786 15.675771,2.5064197 13.850602,2.1579264 c -1.144441,-0.2185169 -2.556763,-0.2185169 -3.701204,0 -4.4182443,0.843609 -7.7247803,4.4903301 -8.1242977,8.9601456 -0.038312,0.428635 -0.038132,1.338319 3.481e-4,1.763856 0.1808848,2.000323 0.9442966,3.882598 2.2008325,5.426391 0.5257223,0.645908 1.0976628,1.194588 1.7734438,1.70132 1.2316864,0.923574 2.6356514,1.543556 4.1496733,1.832469 0.297542,0.05678 0.942928,0.136629 1.286747,0.159204 0.327578,0.02151 1.330366,-0.01012 1.706024,-0.05381 z"
     id="path810" />
  <path
     style="fill:#ffffff;stroke-width:0.0289157"
     d="m 8.0096386,12.99759 v -2.978313 h 0.9831325 0.9831325 v 2.978313 2.978314 H 8.9927711 8.0096386 Z"
     id="path849" />
  <path
     style="fill:#ffffff;stroke-width:0.0289157"
     d="M 11.016867,12.99759 V 10.019277 H 12 12.983133 v 0.53494 c 0,0.337349 0.01068,0.53494 0.02891,0.53494 0.0159,0 0.02892,-0.01107 0.02892,-0.0246 0,-0.01353 0.06503,-0.110508 0.144515,-0.215503 0.593041,-0.78339 1.773868,-1.0662127 2.625582,-0.628861 0.515318,0.264615 0.876456,0.759118 1.067512,1.461739 l 0.07863,0.289156 0.0096,2.00241 0.0096,2.00241 h -0.984593 -0.984593 l -4.27e-4,-1.568675 c -4.63e-4,-1.699244 -0.0064,-1.77586 -0.161209,-2.086337 -0.08879,-0.178064 -0.273875,-0.375591 -0.431135,-0.460131 -0.172293,-0.09262 -0.581434,-0.09011 -0.774069,0.0047 -0.191342,0.09422 -0.391418,0.303989 -0.489153,0.512845 -0.159341,0.340503 -0.167053,0.436519 -0.167601,2.086707 l -5.02e-4,1.510844 H 12 11.016867 Z"
     id="path888" />
  <path
     style="fill:#ffffff;stroke-width:0.0289157"
     d="M 8.8915663,8.985702 C 8.5098576,8.9457515 8.1639822,8.6402152 8.0513357,8.2434668 7.926715,7.8045447 8.1761673,7.2898955 8.6105862,7.0896673 8.7186991,7.0398369 8.8009603,7.0268232 9.0072289,7.0269184 9.2347713,7.0270234 9.28641,7.0369895 9.4182097,7.1062365 9.635957,7.22064 9.751176,7.332702 9.8628984,7.5387407 c 0.09245,0.1704964 0.098547,0.1987375 0.098547,0.45644 0,0.2423364 -0.00954,0.2941251 -0.080974,0.4395937 C 9.7045219,8.7930748 9.2848707,9.0268661 8.8915663,8.985702 Z"
     id="path927" />
</svg>
