<?xml version="1.0" encoding="UTF-8" standalone="no"?>
<svg
   width="24"
   height="24"
   viewBox="0 0 24 24"
   version="1.1"
   id="svg183"
   sodipodi:docname="twitter.svg"
   inkscape:version="1.1.2 (0a00cf5339, 2022-02-04)"
   xmlns:inkscape="http://www.inkscape.org/namespaces/inkscape"
   xmlns:sodipodi="http://sodipodi.sourceforge.net/DTD/sodipodi-0.dtd"
   xmlns="http://www.w3.org/2000/svg"
   xmlns:svg="http://www.w3.org/2000/svg">
  <defs
     id="defs187" />
  <sodipodi:namedview
     id="namedview185"
     pagecolor="#ffffff"
     bordercolor="#666666"
     borderopacity="1.0"
     inkscape:pageshadow="2"
     inkscape:pageopacity="0.0"
     inkscape:pagecheckerboard="0"
     showgrid="false"
     inkscape:zoom="34.583333"
     inkscape:cx="12"
     inkscape:cy="7.373494"
     inkscape:window-width="1920"
     inkscape:window-height="1008"
     inkscape:window-x="0"
     inkscape:window-y="0"
     inkscape:window-maximized="1"
     inkscape:current-layer="svg183" />
  <path
     d="M12 2c5.514 0 10 4.486 10 10s-4.486 10-10 10-10-4.486-10-10 4.486-10 10-10zm0-2c-6.627 0-12 5.373-12 12s5.373 12 12 12 12-5.373 12-12-5.373-12-12-12zm6.5 8.778c-.441.196-.916.328-1.414.388.509-.305.898-.787 1.083-1.362-.476.282-1.003.487-1.564.597-.448-.479-1.089-.778-1.796-.778-1.59 0-2.758 1.483-2.399 3.023-2.045-.103-3.86-1.083-5.074-2.572-.645 1.106-.334 2.554.762 3.287-.403-.013-.782-.124-1.114-.308-.027 1.14.791 2.207 1.975 2.445-.346.094-.726.116-1.112.042.313.978 1.224 1.689 2.3 1.709-1.037.812-2.34 1.175-3.647 1.021 1.09.699 2.383 1.106 3.773 1.106 4.572 0 7.154-3.861 6.998-7.324.482-.346.899-.78 1.229-1.274z"
     id="path181" />
  <path
     style="fill:#ffffff;stroke-width:0.0289157"
     d="m 11.306024,23.968816 c -0.05566,-0.0063 -0.263855,-0.02587 -0.462651,-0.04355 C 9.0432254,23.765165 7.2246014,23.145057 5.6384585,22.150514 2.301894,20.058421 0.18046459,16.418321 0.03455678,12.53494 -0.06275388,9.9449864 0.57701069,7.5937848 1.9565309,5.4714836 3.7888624,2.6525619 6.7519073,0.71361042 10.048193,0.17647747 10.771699,0.05858151 11.16005,0.02925386 12,0.02908013 c 1.08438,-2.2428e-4 1.875845,0.09252336 2.862651,0.33545914 3.770707,0.92828823 6.88018,3.65272563 8.296526,7.26919563 0.613366,1.5661559 0.872078,3.1384801 0.806448,4.9012051 -0.146031,3.922229 -2.317059,7.604983 -5.705824,9.678892 -1.530514,0.936668 -3.14073,1.489073 -4.958596,1.70111 -0.364507,0.04252 -1.761248,0.08023 -1.995181,0.05387 z m 1.836145,-2.021312 c 4.726255,-0.549651 8.409455,-4.329946 8.832731,-9.065576 0.03817,-0.427079 0.03817,-1.336777 0,-1.763856 C 21.622722,7.1778946 18.977143,3.8014953 15.24408,2.5279168 14.143405,2.1524087 13.201606,1.9987987 12,1.9987987 c -1.178859,0 -2.1277449,0.15174 -3.1951807,0.510954 C 5.3110757,3.6854689 2.7238511,6.7188651 2.1285566,10.337349 2.0276968,10.950423 1.9953783,11.3539 1.9953783,12 c 0,1.361677 0.2406289,2.585369 0.7539743,3.834255 0.5512937,1.341208 1.4490434,2.613629 2.5289052,3.584331 1.3870216,1.246812 3.0559186,2.077133 4.8711402,2.423522 0.297542,0.05678 0.942928,0.136629 1.286747,0.159204 0.327578,0.02151 1.330366,-0.01012 1.706024,-0.05381 z"
     id="path374" />
  <path
     style="fill:#ffffff;stroke-width:0.0289157"
     d="M 9.6144578,17.333705 C 9.0003887,17.270905 8.2789637,17.094727 7.7128536,16.869317 7.4147323,16.750612 6.9082383,16.501046 6.6939759,16.367281 l -0.1156626,-0.07221 0.2891566,0.01745 c 0.7855994,0.0474 1.6898981,-0.146165 2.4489951,-0.524217 0.3011143,-0.149964 0.832933,-0.49105 0.832933,-0.534208 0,-0.01183 -0.09434,-0.02969 -0.209639,-0.03969 -0.7887376,-0.0684 -1.5697719,-0.60746 -1.9280532,-1.330711 -0.064751,-0.130712 -0.1177299,-0.254605 -0.1177299,-0.275318 0,-0.02948 0.051809,-0.03339 0.2385542,-0.01801 0.230824,0.01901 0.6473276,-0.01879 0.7826405,-0.07103 0.071057,-0.02743 0.086805,-0.01947 -0.2313503,-0.117058 -0.7516947,-0.23058 -1.4051762,-0.92915 -1.610536,-1.72166 -0.0469,-0.180992 -0.095054,-0.591452 -0.069388,-0.591452 0.00804,0 0.097736,0.0374 0.199333,0.0831 0.2790231,0.125522 0.8934875,0.254684 0.8929586,0.187701 -1.099e-4,-0.01376 -0.045476,-0.05585 -0.1008168,-0.09354 C 7.8197651,11.14683 7.4972593,10.782492 7.3600586,10.548699 7.2871758,10.424505 7.1861899,10.199277 7.1356455,10.048193 7.048547,9.7878431 7.0436739,9.7500823 7.0423552,9.3253012 7.0408614,8.8440941 7.0752498,8.6697004 7.24855,8.2796288 L 7.3212982,8.1158841 7.7739021,8.570028 c 0.881117,0.884115 1.7752248,1.4298435 2.9371139,1.7927 0.469129,0.146508 1.28378,0.292694 1.631099,0.292694 h 0.08415 l -0.02762,-0.13735 c -0.04962,-0.246766 -0.03302,-0.7501059 0.03314,-1.004819 0.185947,-0.7158546 0.669001,-1.310934 1.317609,-1.6231757 0.403658,-0.1943227 0.563012,-0.2275943 1.084337,-0.2263998 0.429405,9.838e-4 0.459708,0.00499 0.722892,0.095453 0.323829,0.111315 0.600603,0.2687769 0.861576,0.4901671 L 16.607155,8.409594 16.781919,8.373497 C 17.090213,8.30982 17.412658,8.1961957 17.7759,8.0232352 c 0.194819,-0.092765 0.354216,-0.1627649 0.354216,-0.1555556 0,0.046825 -0.186816,0.4105323 -0.285537,0.5559068 -0.142623,0.2100208 -0.452236,0.5222877 -0.627853,0.6332337 -0.121558,0.076794 -0.159626,0.1239024 -0.100125,0.1239024 0.115619,0 0.711859,-0.1404882 0.977371,-0.2302918 0.178916,-0.060514 0.325301,-0.1040325 0.325301,-0.096707 0,0.00733 -0.06156,0.093656 -0.136807,0.1918457 -0.197722,0.2580163 -0.578307,0.6453061 -0.814776,0.829129 l -0.204583,0.1590366 -3.3e-4,0.303614 c -0.0022,2.061692 -0.973059,4.158988 -2.518439,5.440637 -1.002829,0.831689 -2.115504,1.321023 -3.443999,1.514607 -0.366932,0.05347 -1.3343757,0.07706 -1.685886,0.04111 z"
     id="path413" />
  <path
     style="fill:#ffffff;stroke-width:0.0289157"
     d="m 11.103614,23.939151 c -0.05566,-0.0069 -0.28214,-0.03256 -0.503284,-0.05696 C 8.4668536,23.646742 6.2912657,22.739838 4.5686747,21.367865 2.3531381,19.603281 0.81758689,17.101181 0.27471496,14.371084 -0.28183948,11.572178 0.1588373,8.6852027 1.5151832,6.2444906 2.9299339,3.6986808 5.1580661,1.7812911 7.8795181,0.76774655 8.840461,0.40986457 10.00953,0.15212075 11.045783,0.069682 c 0.53651,-0.04268187 1.847901,-0.01736314 2.371084,0.04577799 2.234793,0.26970913 4.425524,1.20685601 6.164185,2.63690281 1.87969,1.546043 3.242301,3.6115284 3.916529,5.9367938 0.58901,2.0313614 0.614155,4.3335674 0.06964,6.3759034 -0.865833,3.247521 -3.095698,6.018284 -6.087576,7.564237 -1.279722,0.661253 -2.60211,1.069343 -4.069729,1.25592 -0.341143,0.04337 -2.066825,0.08372 -2.306303,0.05393 z m 1.633735,-1.948975 c 1.282004,-0.08007 2.572333,-0.43538 3.773494,-1.039082 1.003077,-0.504145 1.71135,-1.019249 2.546461,-1.85196 0.707474,-0.70544 1.074755,-1.169119 1.546296,-1.952146 0.722306,-1.199439 1.188103,-2.576079 1.358975,-4.016385 0.0687,-0.579081 0.04708,-2.038661 -0.03818,-2.577297 C 21.639596,8.7539584 20.982837,7.2276616 19.878035,5.7975904 19.54739,5.3695987 18.615895,4.4381109 18.187952,4.1075199 16.724759,2.977187 15.022498,2.268854 13.240887,2.0489813 12.746086,1.9879168 11.418262,1.9793761 10.901205,2.0339322 9.0304199,2.2313242 7.2540882,2.9684498 5.7157674,4.1857371 5.3466416,4.4778295 4.4763123,5.3475941 4.1896707,5.7108434 3.0519354,7.1526492 2.3898045,8.6516449 2.094977,10.453012 c -0.068559,0.41889 -0.079731,0.581196 -0.091554,1.330121 -0.015689,0.993837 0.021671,1.45971 0.1797106,2.240963 0.3573174,1.766366 1.2041912,3.424564 2.4219177,4.742169 1.643731,1.778552 3.8124156,2.896407 6.1660327,3.1783 0.206747,0.02476 0.414939,0.04975 0.46265,0.05553 0.190617,0.0231 1.067541,0.01731 1.503615,-0.0099 z"
     id="path526" />
</svg>
